<svg width="22" height="22" viewBox="0 0 22 22" stroke="currentColor" fill="none" xmlns="http://www.w3.org/2000/svg">
    <path
        d="M15.0004 8V5C15.0004 2.79086 13.2095 1 11.0004 1C8.79123 1 7.00037 2.79086 7.00037 5V8M2.59237 9.35196L1.99237 15.752C1.82178 17.5717 1.73648 18.4815 2.03842 19.1843C2.30367 19.8016 2.76849 20.3121 3.35839 20.6338C4.0299 21 4.94374 21 6.77142 21H15.2293C17.057 21 17.9708 21 18.6423 20.6338C19.2322 20.3121 19.6971 19.8016 19.9623 19.1843C20.2643 18.4815 20.179 17.5717 20.0084 15.752L19.4084 9.35197C19.2643 7.81535 19.1923 7.04704 18.8467 6.46616C18.5424 5.95458 18.0927 5.54511 17.555 5.28984C16.9444 5 16.1727 5 14.6293 5L7.37142 5C5.82806 5 5.05638 5 4.44579 5.28984C3.90803 5.54511 3.45838 5.95458 3.15403 6.46616C2.80846 7.04704 2.73643 7.81534 2.59237 9.35196Z"
        stroke="currentColor" stroke-width="2" stroke-linecap="round" stroke-linejoin="round" />
</svg>