<svg width="22" height="20" viewBox="0 0 22 20" fill="none" xmlns="http://www.w3.org/2000/svg">
    <path
        d="M15 14V4.2C15 3.0799 15 2.51984 14.782 2.09202C14.5903 1.71569 14.2843 1.40973 13.908 1.21799C13.4802 1 12.9201 1 11.8 1H4.2C3.0799 1 2.51984 1 2.09202 1.21799C1.71569 1.40973 1.40973 1.71569 1.21799 2.09202C1 2.51984 1 3.0799 1 4.2V10.8C1 11.9201 1 12.4802 1.21799 12.908C1.40973 13.2843 1.71569 13.5903 2.09202 13.782C2.51984 14 3.0799 14 4.2 14H15ZM15 14H19.4C19.9601 14 20.2401 14 20.454 13.891C20.6422 13.7951 20.7951 13.6422 20.891 13.454C21 13.2401 21 12.9601 21 12.4V9.66274C21 9.41815 21 9.29586 20.9724 9.18077C20.9479 9.07873 20.9075 8.98119 20.8526 8.89172C20.7908 8.7908 20.7043 8.70432 20.5314 8.53137L18.4686 6.46863C18.2957 6.29568 18.2092 6.2092 18.1083 6.14736C18.0188 6.09253 17.9213 6.05213 17.8192 6.02763C17.7041 6 17.5818 6 17.3373 6H15M8 16.5C8 17.8807 6.88071 19 5.5 19C4.11929 19 3 17.8807 3 16.5C3 15.1193 4.11929 14 5.5 14C6.88071 14 8 15.1193 8 16.5ZM19 16.5C19 17.8807 17.8807 19 16.5 19C15.1193 19 14 17.8807 14 16.5C14 15.1193 15.1193 14 16.5 14C17.8807 14 19 15.1193 19 16.5Z"
        stroke="currentColor" stroke-width="2" stroke-linecap="round" stroke-linejoin="round" />
</svg>