<svg width="19" height="19" viewBox="0 0 19 19" fill="none" xmlns="http://www.w3.org/2000/svg">
<g id="flag-04">
<path id="Solid" fill-rule="evenodd" clip-rule="evenodd" d="M3.6178 1.1875C3.418 1.18748 3.2234 1.18746 3.05862 1.20092C2.87765 1.2157 2.66411 1.25059 2.44923 1.36008C2.15131 1.51188 1.90909 1.7541 1.75729 2.05202C1.66108 2.24084 1.62247 2.42862 1.60449 2.59418C1.56066 2.78652 1.58471 2.99661 1.58471 3.19202C1.58471 3.1944 1.58471 3.19679 1.58471 3.19917V16.625C1.58471 17.0622 1.93915 17.4167 2.37638 17.4167C2.8136 17.4167 3.16804 17.0622 3.16804 16.625L3.16804 9.5L7.52221 9.50001L7.52221 10.6336C7.52219 10.8334 7.52217 11.028 7.53563 11.1928C7.55042 11.3737 7.5853 11.5873 7.69479 11.8022C7.84659 12.1001 8.08881 12.3423 8.38673 12.4941C8.60161 12.6036 8.81515 12.6385 8.99612 12.6533C9.16091 12.6667 9.3555 12.6667 9.55531 12.6667L15.6762 12.6667C15.8169 12.6667 15.9711 12.6668 16.1017 12.6549C16.2407 12.6422 16.4676 12.6088 16.6846 12.4615C16.9486 12.2821 17.1293 12.0041 17.1859 11.69C17.2325 11.4319 17.1708 11.211 17.1259 11.0788C17.0837 10.9546 17.0211 10.8137 16.9639 10.6852L15.9182 8.33239L16.8874 6.39405C16.9534 6.26222 17.0248 6.11946 17.0739 5.99359C17.1255 5.86163 17.2002 5.63595 17.1607 5.36811C17.1129 5.04498 16.9342 4.75578 16.6665 4.56857C16.4446 4.4134 16.2094 4.37932 16.0683 4.3664C15.9337 4.35409 15.7741 4.35413 15.6267 4.35417L11.4805 4.35418V3.2206C11.4806 3.02079 11.4806 2.8262 11.4671 2.66141C11.4523 2.48044 11.4175 2.2669 11.308 2.05202C11.1562 1.7541 10.914 1.51188 10.616 1.36008C10.4012 1.25059 10.1876 1.2157 10.0066 1.20092C9.84186 1.18746 9.64728 1.18748 9.44748 1.1875L3.6178 1.1875Z" fill="#DC2626"/>
</g>
</svg>
