<svg width="18" height="19" viewBox="0 0 18 19" fill="none" xmlns="http://www.w3.org/2000/svg">
<path d="M9 0.5C4.03745 0.5 0 4.53745 0 9.5C0 14.4625 4.03745 18.5 9 18.5C13.9625 18.5 18 14.4625 18 9.5C18 4.53745 13.9625 0.5 9 0.5ZM13.6839 6.4837L7.86851 13.4068C7.80472 13.4828 7.72534 13.5441 7.63576 13.5868C7.54617 13.6294 7.44848 13.6523 7.34928 13.6538H7.3376C7.24056 13.6538 7.14461 13.6334 7.05598 13.5939C6.96735 13.5544 6.88802 13.4967 6.82313 13.4245L4.33082 10.6553C4.26752 10.5882 4.21828 10.509 4.186 10.4226C4.15371 10.3362 4.13903 10.2442 4.14282 10.152C4.1466 10.0598 4.16877 9.96928 4.20803 9.88578C4.24729 9.80228 4.30285 9.72747 4.37144 9.66575C4.44002 9.60403 4.52025 9.55665 4.60741 9.52638C4.69457 9.4961 4.7869 9.48356 4.87898 9.48948C4.97106 9.49541 5.06102 9.51968 5.14359 9.56086C5.22615 9.60205 5.29965 9.65933 5.35976 9.72933L7.31942 11.9066L12.6238 5.59322C12.7428 5.45566 12.9111 5.37044 13.0924 5.356C13.2737 5.34155 13.4534 5.39903 13.5927 5.51601C13.732 5.633 13.8196 5.80009 13.8367 5.98116C13.8537 6.16224 13.7989 6.34276 13.6839 6.4837Z" fill="#16A34A"/>
</svg>
