<svg width="22" height="19" viewBox="0 0 22 19" fill="none" xmlns="http://www.w3.org/2000/svg">
<path d="M1 4.66345L9.16492 10.3789C9.82609 10.8417 10.1567 11.0731 10.5163 11.1628C10.8339 11.2419 11.1661 11.2419 11.4837 11.1628C11.8433 11.0731 12.1739 10.8417 12.8351 10.3789L21 4.66345M5.8 17.6635H16.2C17.8802 17.6635 18.7202 17.6635 19.362 17.3365C19.9265 17.0489 20.3854 16.5899 20.673 16.0254C21 15.3837 21 14.5436 21 12.8635V6.46345C21 4.78329 21 3.94322 20.673 3.30148C20.3854 2.73699 19.9265 2.27805 19.362 1.99043C18.7202 1.66345 17.8802 1.66345 16.2 1.66345H5.8C4.11984 1.66345 3.27976 1.66345 2.63803 1.99043C2.07354 2.27805 1.6146 2.73699 1.32698 3.30148C1 3.94322 1 4.78329 1 6.46345V12.8635C1 14.5436 1 15.3837 1.32698 16.0254C1.6146 16.5899 2.07354 17.0489 2.63803 17.3365C3.27976 17.6635 4.11984 17.6635 5.8 17.6635Z" stroke="#9DA4AE" stroke-width="2" stroke-linecap="round" stroke-linejoin="round"/>
</svg>
