<svg width="22" height="22" viewBox="0 0 22 22" fill="none" xmlns="http://www.w3.org/2000/svg">
<path d="M10.9998 9.90005C10.7081 9.90005 10.4283 10.0159 10.222 10.2222C10.0157 10.4285 9.89981 10.7083 9.89981 11V15.3999C9.89981 15.6917 10.0157 15.9715 10.222 16.1777C10.4283 16.384 10.7081 16.4999 10.9998 16.4999C11.2915 16.4999 11.5713 16.384 11.7776 16.1777C11.9839 15.9715 12.0998 15.6917 12.0998 15.3999V11C12.0998 10.7083 11.9839 10.4285 11.7776 10.2222C11.5713 10.0159 11.2915 9.90005 10.9998 9.90005ZM11.4178 5.58814C11.15 5.47812 10.8496 5.47812 10.5818 5.58814C10.4468 5.64049 10.3234 5.71899 10.2188 5.81913C10.1216 5.92605 10.0435 6.04882 9.98781 6.18212C9.92623 6.31267 9.89609 6.45582 9.89981 6.60012C9.89898 6.74488 9.92672 6.88839 9.98146 7.0224C10.0362 7.15642 10.1169 7.27832 10.2188 7.3811C10.3257 7.47826 10.4485 7.55639 10.5818 7.6121C10.7484 7.68056 10.9294 7.70704 11.1086 7.68922C11.2879 7.67139 11.4601 7.60981 11.61 7.50987C11.7599 7.40994 11.8829 7.27471 11.9683 7.11608C12.0537 6.95745 12.0989 6.78027 12.0998 6.60012C12.0957 6.30888 11.9818 6.02992 11.7808 5.81913C11.6762 5.71899 11.5528 5.64049 11.4178 5.58814ZM10.9998 0.000244141C8.82424 0.000244141 6.69754 0.64537 4.88864 1.85404C3.07973 3.06271 1.66986 4.78065 0.837314 6.79059C0.00476603 8.80054 -0.213066 11.0122 0.211363 13.146C0.635792 15.2797 1.68342 17.2397 3.22177 18.7781C4.76012 20.3164 6.72009 21.364 8.85384 21.7885C10.9876 22.2129 13.1993 21.9951 15.2092 21.1625C17.2192 20.33 18.9371 18.9201 20.1458 17.1112C21.3544 15.3023 21.9996 13.1756 21.9996 11C21.9996 9.55552 21.7151 8.12515 21.1623 6.79059C20.6095 5.45604 19.7992 4.24343 18.7778 3.22201C17.7564 2.20058 16.5438 1.39034 15.2092 0.837553C13.8747 0.284762 12.4443 0.000244141 10.9998 0.000244141ZM10.9998 19.7999C9.25935 19.7999 7.55799 19.2838 6.11087 18.3168C4.66374 17.3499 3.53585 15.9755 2.86981 14.3676C2.20377 12.7596 2.02951 10.9903 2.36905 9.28327C2.70859 7.57627 3.54669 6.00829 4.77737 4.77761C6.00805 3.54693 7.57603 2.70883 9.28303 2.36929C10.99 2.02974 12.7594 2.20401 14.3673 2.87005C15.9753 3.53609 17.3496 4.66398 18.3166 6.11111C19.2835 7.55823 19.7996 9.25959 19.7996 11C19.7996 13.3339 18.8725 15.5722 17.2222 17.2224C15.5719 18.8727 13.3337 19.7999 10.9998 19.7999Z" fill="#0052EA"/>
</svg>
