<svg width="18" height="21" viewBox="0 0 18 21" fill="none" xmlns="http://www.w3.org/2000/svg">
<path d="M4 9.66345V6.66345C4 3.90203 6.23858 1.66345 9 1.66345C11.419 1.66345 13.4367 3.38121 13.9 5.66345M5.8 19.6635H12.2C13.8802 19.6635 14.7202 19.6635 15.362 19.3365C15.9265 19.0489 16.3854 18.5899 16.673 18.0254C17 17.3837 17 16.5436 17 14.8635V14.4635C17 12.7833 17 11.9432 16.673 11.3015C16.3854 10.737 15.9265 10.2781 15.362 9.99043C14.7202 9.66345 13.8802 9.66345 12.2 9.66345H5.8C4.11984 9.66345 3.27976 9.66345 2.63803 9.99043C2.07354 10.2781 1.6146 10.737 1.32698 11.3015C1 11.9432 1 12.7833 1 14.4635V14.8635C1 16.5436 1 17.3837 1.32698 18.0254C1.6146 18.5899 2.07354 19.0489 2.63803 19.3365C3.27976 19.6635 4.11984 19.6635 5.8 19.6635Z" stroke="#9DA4AE" stroke-width="2" stroke-linecap="round" stroke-linejoin="round"/>
</svg>
