<svg width="26" height="26" viewBox="0 0 26 26" fill="none" xmlns="http://www.w3.org/2000/svg">
<path d="M16.9167 24.5L16.9167 1.83333M24 21.6667C24 22.4181 23.7015 23.1388 23.1701 23.6701C22.6388 24.2015 21.9181 24.5 21.1667 24.5L4.16667 24.5C3.41522 24.5 2.69455 24.2015 2.1632 23.6701C1.63185 23.1388 1.33333 22.4181 1.33333 21.6667L1.33334 4.66667C1.33334 3.91522 1.63185 3.19455 2.1632 2.6632C2.69455 2.13184 3.41522 1.83333 4.16667 1.83333L21.1667 1.83333C21.9181 1.83333 22.6388 2.13185 23.1701 2.6632C23.7015 3.19455 24 3.91522 24 4.66667L24 21.6667Z" stroke="#4A545E" stroke-width="2.125" stroke-linecap="round" stroke-linejoin="round"/>
<path d="M8.41667 16L11.25 13.1667L8.41667 10.3333" stroke="#4A545E" stroke-width="2.125" stroke-linecap="round" stroke-linejoin="round"/>
</svg>
